<svg aria-hidden="true" style="position:absolute;width:0;height:0;overflow:hidden" xmlns="http://www.w3.org/2000/svg">
  <defs>
    <symbol id="logo" viewBox="0 0 76 76">
        <path d="m43.404 26.578 1.416 1.037a.873.873 0 0 1 .257.27.837.837 0 0 1-.127 1.027l-8.367 9.003a.558.558 0 0 1-.724.083l-.324-.228a.565.565 0 0 0-.692 0l-4.52 4.022c3.207-.38 6.389-.954 9.525-1.72a44.576 44.576 0 0 0 14.182-6.379s1.276 2.842.357 3.89c-3.835 4.47-21.681 8.403-27.72 7.456l-4.071 3.601-.303-.322 3.24-3.57a1.96 1.96 0 0 1-.548-.32 9.859 9.859 0 0 1-.562-2.157 80.068 80.068 0 0 0 3.574-.237L41.89 26.723a1.112 1.112 0 0 1 1.513-.145Zm-16.3 16.711a.686.686 0 0 0 .229.938c.12.077.263.119.408.119a.752.752 0 0 0 .523-.204.695.695 0 0 0 .212-.502.676.676 0 0 0-.025-.183l-.007.007a.706.706 0 0 0-.266-.36.756.756 0 0 0-.437-.138.766.766 0 0 0-.637.323ZM36.666 13.975l1.72 2.252.833-.031-1.801-2.395c.48-.158.898-.462 1.194-.87.277-.425.41-.927.38-1.433a2.24 2.24 0 0 0-.844-1.78 3.265 3.265 0 0 0-2.181-.584l-2.737.01.236 7.164h.762l-.072-2.272 1.934-.061c.192.01.385.01.576 0Zm1.418-1.725a1.626 1.626 0 0 1-.42.61 2.478 2.478 0 0 1-1.615.521l-1.914.062-.123-3.583 1.955-.071a2.51 2.51 0 0 1 1.615.42 1.65 1.65 0 0 1 .608 1.31 1.62 1.62 0 0 1-.106.73Zm-6.768 3.72.155.645-4.96 1.157-1.647-6.98 4.816-1.116.144.634-4.116.952.587 2.477 3.622-.85.154.635-3.632.84.617 2.589 4.26-.982Zm-12.873-2.66-.69.306 2.985 6.52 4.363-1.975-.267-.594-3.674 1.658-2.717-5.916Zm-7.172 4.574.618-.46 3.92 5.22 3.232-2.405.39.522-3.838 2.855-4.322-5.732ZM9.553 27.67l2.398-3.183 2.058.43.483-.634-7.748-1.659-.443.604 3.808 6.909.473-.634-1.03-1.833Zm-2.398-4.268 4.116.922-2.058 2.753L7.155 23.4Zm-.864 6.817-.164.706 2.356.594c.25.621.293 1.306.124 1.954a3.197 3.197 0 0 1-.72 1.444c-.35.381-.794.667-1.287.829a2.927 2.927 0 0 1-1.574 0 2.907 2.907 0 0 1-1.41-.747 2.792 2.792 0 0 1-.792-1.3 3.177 3.177 0 0 1-.031-1.607 2.918 2.918 0 0 1 1.358-1.986l-.37-.563a2.998 2.998 0 0 0-1.03.952 4.358 4.358 0 0 0-.586 1.413 3.849 3.849 0 0 0 0 2.047c.167.616.506 1.174.978 1.606.479.451 1.073.763 1.718.901a3.775 3.775 0 0 0 1.945-.072 3.53 3.53 0 0 0 1.585-1.023 3.84 3.84 0 0 0 .885-1.78c.112-.477.143-.968.092-1.454a3.425 3.425 0 0 0-.4-1.31l-2.676-.604ZM43.83 14.323l-.37 2.446-.752-.113.38-2.405-2.13-5.117.803.122 1.822 4.36 3.087-3.612.72.153-3.56 4.166Zm11.072.727-.896-1.157 1.41-.164v-.501l-1.482.204.525-1.371-.442-.184-.556 1.35-.793-1.166-.4.307.905 1.157-1.461.163v.492l1.481-.195-.576 1.341.432.184.566-1.34.896 1.187.39-.307Zm2.54 7.092A2.825 2.825 0 0 1 57 20.904l.608-.266c.045.406.178.797.39 1.146.23.392.53.739.886 1.024.366.349.834.575 1.337.645a1.129 1.129 0 0 0 .968-.4.92.92 0 0 0 .236-.696 1.877 1.877 0 0 0-.247-.706 10.742 10.742 0 0 0-.627-.91 9.29 9.29 0 0 1-.741-1.127 2.038 2.038 0 0 1-.268-.962c0-.38.143-.745.402-1.023.224-.27.52-.473.854-.584.373-.107.769-.107 1.142 0 .48.157.925.407 1.307.737.317.262.597.565.833.9.219.312.383.658.484 1.024l-.587.308a3.594 3.594 0 0 0-.452-.963 3.704 3.704 0 0 0-.69-.706 2.29 2.29 0 0 0-1.327-.624 1.117 1.117 0 0 0-.968.42.88.88 0 0 0-.236.696c.024.258.108.506.247.726.144.236.35.543.627.911.276.349.524.718.741 1.105.172.293.267.624.278.963a1.5 1.5 0 0 1-.401 1.023 1.832 1.832 0 0 1-.865.583c-.372.112-.77.112-1.142 0a3.823 3.823 0 0 1-1.317-.736 4.66 4.66 0 0 1-1.03-1.27Zm8.901-.552 1.451 2.047-5.361 3.766.432.625 5.372-3.736 1.45 2.047.536-.379-3.345-4.749-.535.379Zm-.853 10.46a3.396 3.396 0 0 1 1.029-1.597 3.66 3.66 0 0 1 1.687-.85 3.745 3.745 0 0 1 1.935.072c.605.2 1.148.552 1.575 1.024a3.83 3.83 0 0 1 .874 1.78 3.88 3.88 0 0 1 0 1.976 3.499 3.499 0 0 1-1.029 1.597 3.825 3.825 0 0 1-3.674.798 3.449 3.449 0 0 1-1.574-1.023 3.84 3.84 0 0 1-.875-1.77 3.92 3.92 0 0 1 .052-2.007Zm1.348 3.255c.343.389.788.676 1.286.829a3.207 3.207 0 0 0 2.984-.655c.38-.348.66-.79.813-1.28a3.278 3.278 0 0 0-.669-3.009 2.935 2.935 0 0 0-1.327-.829 3.102 3.102 0 0 0-1.585 0c-.524.1-1.009.345-1.4.706a2.854 2.854 0 0 0-.812 1.29c-.14.52-.14 1.067 0 1.587.112.507.357.977.71 1.36Zm.535 7.604-2.665 1.024-.195.767 2.84-1.023c.002.505.178.995.498 1.387.32.393.765.665 1.262.773a2.234 2.234 0 0 0 1.955-.287 3.242 3.242 0 0 0 1.194-1.904l.7-2.59-6.957-1.852-.196.727 2.182.563-.504 1.852a6.534 6.534 0 0 1-.02.07l-.008.032c-.043.157-.085.31-.085.461Zm1.263 1.872a1.846 1.846 0 0 1-.48-.562 2.454 2.454 0 0 1-.031-1.688l.494-1.843 3.488.932-.494 1.842c-.11.569-.42 1.08-.874 1.443a1.857 1.857 0 0 1-2.103-.124Zm-7.623 5.743-.525-.399 3.088-4.043 5.742 4.33-2.984 3.92-.525-.4 2.52-3.305-2.057-1.546-2.254 2.958-.514-.389 2.305-2.958-2.13-1.607-2.666 3.44Zm-3.878 8.24 1.471-.082-.75 1.238.431.246.68-1.33.782 1.227.401-.255-.792-1.218h1.492v-.502l-1.472.082.7-1.29-.442-.235-.638 1.371-.782-1.228-.402.256.792 1.218-1.471.01v.492Zm-11.906-.901 1.245.686a3.186 3.186 0 0 1 2.058-1.617 3.27 3.27 0 0 1 1.266-.134c.37.029.725.156 1.029.369.274.206.476.492.576.819.124.404.102.838-.062 1.228a5.118 5.118 0 0 1-1.029 1.423c.34.181.654.404.937.665.194.2.338.441.422.706a1.355 1.355 0 0 1-.268 1.198 1.976 1.976 0 0 1-1.153.788 1.8 1.8 0 0 1-1.276 0 1.286 1.286 0 0 1-.74-.87 1.386 1.386 0 0 1 .072-1.024c.236-.465.545-.89.915-1.259l-2.48-1.371a4.844 4.844 0 0 0-.061 1.463h-.628a4.867 4.867 0 0 1 .206-1.78l-1.297-.717.268-.573Zm1.79 1.023 2.727 1.505a4.28 4.28 0 0 0 .875-1.177 1.293 1.293 0 0 0 0-.921 1.103 1.103 0 0 0-.72-.768 2.068 2.068 0 0 0-1.318 0 2.474 2.474 0 0 0-1.605 1.33l.041.031Zm3.87 4.094a.918.918 0 0 0 .082-.757 1.258 1.258 0 0 0-.33-.532 4.45 4.45 0 0 0-.854-.563c-.312.307-.585.65-.813 1.023a1.018 1.018 0 0 0-.082.758.858.858 0 0 0 .453.542c.262.099.55.099.813 0 .28-.074.524-.244.69-.48l.04.01Zm-18.06-4.39-.144 7.164.628.01 3.2-5.25 3.026 5.353h.628l.133-7.165h-.73l-.103 5.701-2.738-4.851h-.36l-2.922 4.77.113-5.733h-.73Zm-3.724-.328a3.472 3.472 0 0 1 .936 3.541 3.638 3.638 0 0 1-.977 1.669 3.462 3.462 0 0 1-1.657.9 4.014 4.014 0 0 1-1.996-.061 3.876 3.876 0 0 1-1.73-.932c-.463-.44-.794-1-.956-1.617a3.757 3.757 0 0 1 1.029-3.602 3.556 3.556 0 0 1 1.626-.922 3.984 3.984 0 0 1 1.986.062 3.886 3.886 0 0 1 1.739.962Zm-3.51-.358a2.752 2.752 0 0 0-1.327.737c-.379.375-.649.845-.782 1.36a2.902 2.902 0 0 0 0 1.567c.122.498.382.952.751 1.31.388.377.866.648 1.39.788a3.25 3.25 0 0 0 1.595 0 2.927 2.927 0 0 0 1.337-.737c.378-.377.647-.847.783-1.361a2.933 2.933 0 0 0 0-1.576 2.873 2.873 0 0 0-.762-1.31 3.092 3.092 0 0 0-1.4-.778 2.991 2.991 0 0 0-1.584 0Zm-7.511-1.945-.278-2.815-.73-.47.298 3.009a2.399 2.399 0 0 0-1.482.112 2.35 2.35 0 0 0-1.08 1.024 2.243 2.243 0 0 0-.227 1.944c.303.711.85 1.292 1.544 1.638l2.346 1.341 3.602-6.172-.67-.379-1.131 1.986-1.678-.962a4.802 4.802 0 0 0-.514-.256Zm-2.118.738c.198-.15.425-.258.667-.318v-.051c.594-.031 1.18.146 1.657.501l1.656.952-1.8 3.07-1.657-.951a2.524 2.524 0 0 1-1.184-1.218 1.833 1.833 0 0 1 .66-1.985Zm-4.251-8.353.463-.46 3.55 3.633-5.145 4.995-3.427-3.521.473-.46 2.913 2.978 1.76-1.77-2.553-2.642.494-.47 2.604 2.66 1.914-1.852-3.046-3.09ZM4.316 42.91l-.247 1.413-1.111-.962-.34.368 1.143.952-1.38.481.155.4 1.379-.492-.288 1.453.494.093.257-1.454 1.101 1.024.33-.369-1.143-.962 1.39-.47-.165-.451-1.369.502.278-1.454-.484-.072Z"/>
    </symbol>

    <!-- Features icons -->
    <symbol id="antenna" viewBox="0 0 32 32">
      <path fill="#2e2f42" style="fill:var(--color1, #2e2f42)" d="m30.773 22.098-8.443-8.505.937-4.615c.242.094.499.144.758.146h.006a2.159 2.159 0 1 0-2.008-1.435l-4.96.605L8.972.161a.534.534 0 0 0-.377-.16.532.532 0 0 0-.373.155L6.709 1.66a.534.534 0 0 0 0 .754l.814.826a14.943 14.943 0 0 0 2.519 17.663.513.513 0 0 0 .146.098c-.034.18-.051.364-.052.547v6.187h-6.4a2.67 2.67 0 0 0-2.667 2.667v1.067c0 .295.239.533.533.533h24.533a.533.533 0 0 0 .533-.533v-1.067a2.67 2.67 0 0 0-2.667-2.667h-6.4v-2.742a15.09 15.09 0 0 0 3.049.32 14.854 14.854 0 0 0 7.04-1.783l.818.823a.534.534 0 0 0 .377.16.532.532 0 0 0 .373-.155l1.513-1.504a.534.534 0 0 0 0-.754zM23.28 6.233a1.067 1.067 0 1 1 .753 1.822h-.003a1.067 1.067 0 0 1-.747-1.823h-.002zm-1.256 3.505-.598 2.946-1.175-1.182 1.774-1.763zm-.605-.902-1.92 1.909-1.485-1.493 3.405-.415zM24.004 28.8a1.6 1.6 0 0 1 1.6 1.6v.533H2.137V30.4a1.6 1.6 0 0 1 1.6-1.6h20.267zm-7.467-2.133v1.067h-5.333v-1.067h5.333zM11.204 25.6v-4.053c0-1.294 1.196-2.347 2.667-2.347s2.667 1.053 2.667 2.347V25.6h-5.333zm6.4-1.696v-2.357c0-1.882-1.675-3.413-3.733-3.413a3.8 3.8 0 0 0-3.281 1.786A13.87 13.87 0 0 1 8.311 4.033l18.602 18.708a13.818 13.818 0 0 1-9.309 1.163zm11.289-.684L7.836 2.039l.755-.752 7.935 7.98c.004 0 .006.007.01.01l13.115 13.191-.757.752z"/>
      <path fill="#4d5ae5" style="fill:var(--color2, #4d5ae5)" d="M13.876 20.267h-.005a1.6 1.6 0 1 0-.004 3.2h.005a1.6 1.6 0 1 0 .004-3.2zm.373 1.978a.534.534 0 0 1-.752-.756.534.534 0 0 1 .373-.155.534.534 0 0 1 .374.911h.005z"/>
    </symbol>
    <symbol id="clock" viewBox="0 0 32 32">
      <path fill="#2e2f42" style="fill:var(--color1, #2e2f42)" d="M31.297 15.301C31.295 6.849 24.442-.002 15.989 0S.686 6.855.688 15.308a15.304 15.304 0 0 0 10.649 14.576.662.662 0 0 0 .529-.065.637.637 0 0 0 .283-.356l3.865-12.25a1.912 1.912 0 1 0-.84-3.635l-5.106-5.107a.637.637 0 0 0-.902.902l5.103 5.109a1.876 1.876 0 0 0 .536 2.309l-3.683 11.673C3.844 25.783.118 17.71 2.799 10.432S13.553-.572 20.831 2.109c7.278 2.681 11.004 10.754 8.323 18.032a14.042 14.042 0 0 1-7.462 7.973l-.398-1.874a.637.637 0 0 0-1.049-.344l-3.837 3.426a.637.637 0 0 0 .231 1.084l4.899 1.564a.638.638 0 0 0 .819-.74l-.391-1.839a15.255 15.255 0 0 0 9.329-14.089zm-15.305-.637a.638.638 0 1 1 0 1.277.638.638 0 0 1 0-1.277zm2.101 14.864 2.184-1.948.603 2.84-2.787-.892z"/>
      <path fill="#4d5ae5" style="fill:var(--color2, #4d5ae5)" d="M15.354 3.185V4.46a.638.638 0 1 0 1.276 0V3.185a.638.638 0 0 0-1.276 0zM3.876 14.664a.638.638 0 0 0 0 1.276h1.275a.638.638 0 1 0 0-1.276H3.876zM28.108 15.939a.638.638 0 1 0 0-1.276h-1.275a.638.638 0 0 0 0 1.276h1.275z"/>
    </symbol>
    <symbol id="diagram" viewBox="0 0 32 32">
      <path fill="#4d5ae5" style="fill:var(--color2, #4d5ae5)" d="M14.926 14.965h1.066v4.798h-1.066v-4.797zM19.19 17.097h1.066v2.665H19.19v-2.665zM10.661 18.696h1.066v1.066h-1.066v-1.066zM7.463 18.163h1.066v1.599H7.463v-1.599z"/>
      <path fill="#2e2f42" style="fill:var(--color1, #2e2f42)" d="M1.599 28.291h25.587a1.6 1.6 0 0 0 1.599-1.599V24.56a1.6 1.6 0 0 0-1.599-1.599h-.533V9.668L29.681 6.8a1.608 1.608 0 1 0-.746-.763L26.654 8.2V6.97a1.6 1.6 0 0 0-1.599-1.599H3.733A1.6 1.6 0 0 0 2.134 6.97v15.992h-.533a1.6 1.6 0 0 0-1.599 1.599v2.132a1.6 1.6 0 0 0 1.599 1.599zM30.384 4.837a.533.533 0 1 1 0 1.067.533.533 0 0 1 0-1.067zM3.198 6.969c0-.294.239-.533.533-.533h21.322c.294 0 .533.239.533.533v2.239l-1.066 1.013V8.035a.533.533 0 0 0-.533-.533H4.797a.533.533 0 0 0-.533.533v13.326c0 .294.239.533.533.533h19.19a.533.533 0 0 0 .533-.533v-9.674l1.066-1.01v12.284H3.198V6.969zm4.798 6.93a1.598 1.598 0 1 0 1.107 2.749l1.853.93a.532.532 0 0 0 .636-.123l3.939-4.431 3.872 2.901a.533.533 0 0 0 .686-.039l3.365-3.188v8.131H5.33V8.569h18.124v2.66l-3.771 3.572-3.904-2.927a.533.533 0 0 0-.718.072l-3.993 4.493-1.493-.746c.011-.064.018-.129.02-.193a1.6 1.6 0 0 0-1.599-1.599zm.533 1.599a.533.533 0 1 1-1.067 0 .533.533 0 0 1 1.067 0zm3.198 8.529h5.331v.533a.533.533 0 0 1-.533.533h-4.264a.533.533 0 0 1-.533-.533v-.533zm-10.661.533c0-.294.239-.533.533-.533h9.062v.533a1.6 1.6 0 0 0 1.599 1.599h4.264a1.6 1.6 0 0 0 1.599-1.599v-.533h9.062c.294 0 .533.239.533.533v2.132a.533.533 0 0 1-.533.533H1.598a.533.533 0 0 1-.533-.533V24.56z"/>
    </symbol>
    <symbol id="astronaut" viewBox="0 0 32 32">
      <path fill="#4d5ae5" style="fill:var(--color2, #4d5ae5)" d="M31.974 4.524a.534.534 0 0 0-.43-.363l-1.91-.278-.855-1.731c-.179-.365-.777-.365-.956 0l-.855 1.731-1.91.278a.535.535 0 0 0-.296.91l1.383 1.348-.326 1.903c-.034.2.048.402.212.522a.53.53 0 0 0 .562.04l1.709-.899 1.709.899a.536.536 0 0 0 .775-.563l-.326-1.903 1.383-1.348a.536.536 0 0 0 .135-.547zm-2.463 1.327a.534.534 0 0 0-.153.472l.191 1.114-1-.526a.533.533 0 0 0-.498 0l-1.001.526.191-1.114a.534.534 0 0 0-.153-.472l-.81-.789 1.119-.163a.532.532 0 0 0 .402-.292l.5-1.013.5 1.013a.535.535 0 0 0 .402.292l1.119.163-.809.789zM26.134 20.522h-1.067v1.067h1.067v-1.067zM26.134 22.656h-1.067v1.067h1.067v-1.067zM27.2 21.589h-1.067v1.067H27.2v-1.067zM25.067 21.589H24v1.067h1.067v-1.067zM22.4 26.389h-1.067v1.067H22.4v-1.067zM22.4 28.522h-1.067v1.067H22.4v-1.067zM23.467 27.456H22.4v1.067h1.067v-1.067zM21.333 27.456h-1.067v1.067h1.067v-1.067zM16 24.256h-1.067v1.067H16v-1.067zM16 26.389h-1.067v1.067H16v-1.067zM17.067 25.322H16v1.067h1.067v-1.067zM14.933 25.322h-1.067v1.067h1.067v-1.067zM5.867 6.122H4.8v1.067h1.067V6.122zM5.867 8.255H4.8v1.067h1.067V8.255z"/>
      <path fill="#4d5ae5" style="fill:var(--color2, #4d5ae5)" d="M6.933 7.189H5.866v1.067h1.067V7.189zM4.8 7.189H3.733v1.067H4.8V7.189z"/>
      <path fill="#2e2f42" style="fill:var(--color1, #2e2f42)" d="M24.715 14.159a1.775 1.775 0 0 0-1.188-.705 1.778 1.778 0 0 0-1.34.352l-1.252.96-1.898 1.417-1.358-.541c2.421-1.086 4.114-3.508 4.114-6.32 0-3.823-3.123-6.933-6.961-6.933s-6.961 3.11-6.961 6.933a6.86 6.86 0 0 0 1.12 3.758l-2.764-.024h-.005c-.009 0-.015.004-.023.005a.515.515 0 0 0-.155.031l-.038.013c-.006.003-.013.003-.019.006l-3.233 1.596-.001.001-1.893.911a.397.397 0 0 0-.063.035 1.779 1.779 0 0 0-.598 2.295c.22.429.595.745 1.056.889a1.776 1.776 0 0 0 1.378-.128l1.388-.738 2.264-1.169 1.357-.008L2.2 22.211l-.002.001-1.339 1.333c-.316.315-.49.732-.49 1.178s.174.863.49 1.179c.325.323.752.485 1.179.485s.854-.162 1.18-.485l1.314-1.309 1.741-1.3.901.897-1.762 1.754-.002.001-1.339 1.333c-.316.315-.49.732-.49 1.178s.174.863.49 1.179c.325.323.753.485 1.18.485s.855-.162 1.18-.485l3.482-3.467.001-.002 1.01-1-.004-.004c.006-.006.015-.009.022-.015l5.166-5.658 3.471.494a.52.52 0 0 0 .262-.033c.018-.006.033-.015.05-.023.019-.01.039-.015.058-.027l3.213-2.133c.012-.008.018-.021.029-.029.013-.01.029-.014.041-.026l1.271-1.191c.662-.62.753-1.635.212-2.362zM2.13 17.77a.714.714 0 0 1-.558.052.717.717 0 0 1-.213-1.26l1.314-.632.449 1.313-.992.527zm3.498-1.828-1.548.8-.439-1.283 2.027-1.001-.04 1.484zm15.099-6.62a5.79 5.79 0 0 1-.599 2.559l-4.181-1.899a1.863 1.863 0 0 0-.788-1.388l1.464-4.86c2.378.756 4.105 2.974 4.105 5.588zm-11.789 0c0-3.235 2.644-5.867 5.894-5.867.253 0 .5.021.745.052l-1.432 4.754c-.019-.001-.037-.006-.057-.006-1.033 0-1.873.837-1.873 1.867s.84 1.867 1.873 1.867c.694 0 1.294-.383 1.618-.945l3.862 1.755a5.894 5.894 0 0 1-4.737 2.39c-3.25 0-5.894-2.632-5.894-5.867zm5.956.8c0 .441-.362.8-.806.8s-.806-.359-.806-.8c0-.441.362-.8.806-.8s.806.359.806.8zM2.465 25.146a.608.608 0 0 1-.854.001.592.592 0 0 1 0-.844l.962-.958.851.848-.959.955zm3.214 3.734a.608.608 0 0 1-.855.001.592.592 0 0 1 0-.844l.963-.959.852.848-.96.955zm3.481-3.469-.002.001-1.765 1.76-.852-.848 1.763-1.755.002-.001c.04-.04.065-.088.09-.135.007-.014.02-.026.026-.04.017-.041.019-.085.026-.129.003-.025.014-.047.014-.073 0-.036-.013-.07-.02-.106-.006-.032-.006-.065-.019-.095a.55.55 0 0 0-.091-.138c-.01-.012-.014-.027-.025-.038h-.001l-.001-.002-1.607-1.6c-.017-.017-.039-.024-.058-.038a.507.507 0 0 0-.087-.058.515.515 0 0 0-.093-.033.507.507 0 0 0-.103-.02.5.5 0 0 0-.095.005.53.53 0 0 0-.104.02.477.477 0 0 0-.094.045c-.02.011-.042.015-.061.029L4.23 23.486l-.901-.897 2.399-2.386 4.361 4.289-.928.919zm6.819-7.017c-.015-.002-.03.004-.045.003a.556.556 0 0 0-.3.075.492.492 0 0 0-.083.061c-.013.011-.028.017-.04.029l-4.698 5.146-4.328-4.257 2.833-2.818a.534.534 0 0 0-.379-.911v-.001l-2.219.013.028-1.607 3.104.027a6.947 6.947 0 0 0 4.981 2.101c.437 0 .864-.045 1.279-.123.04.032.079.065.13.085l2.41.96.152.758.178.885-3.003-.427zm4.041.178-.313-1.558 1.446-1.08.947 1.257-2.08 1.381zm3.754-2.831-.838.785-.931-1.236.831-.637a.735.735 0 0 1 .543-.143.718.718 0 0 1 .48.284.713.713 0 0 1-.085.947z"/>
      <path fill="#2e2f42" style="fill:var(--color1, #2e2f42)" d="m13.602 18.544-2.143-2.133a.534.534 0 0 0-.753 0l-2.142 2.133a.537.537 0 0 0 0 .756l2.142 2.133a.536.536 0 0 0 .753 0l2.143-2.133a.535.535 0 0 0 0-.756zm-2.519 1.759-1.387-1.381 1.387-1.381 1.387 1.381-1.387 1.381zM17.164 5.071l-.258 1.036c.071.018 1.738.452 1.738 2.149h1.067c0-2.017-1.666-2.965-2.547-3.185zM19.711 9.322h-1.067v1.067h1.067V9.322z"/>
    </symbol>
    <!-- Socials icons -->
    <symbol id="instagram" viewBox="0 0 32 32">
      <path d="M31.912 9.408c-.075-1.7-.35-2.869-.744-3.882a7.803 7.803 0 0 0-1.85-2.838A7.867 7.867 0 0 0 26.486.844C25.467.45 24.304.175 22.604.1 20.891.019 20.347 0 16.003 0s-4.888.019-6.595.094c-1.7.075-2.869.35-3.882.744a7.803 7.803 0 0 0-2.838 1.85A7.867 7.867 0 0 0 .844 5.52C.45 6.539.175 7.702.1 9.402c-.081 1.713-.1 2.257-.1 6.601s.019 4.888.094 6.595c.075 1.7.35 2.869.744 3.882a7.895 7.895 0 0 0 1.85 2.838 7.867 7.867 0 0 0 2.832 1.844c1.019.394 2.182.669 3.882.744 1.706.075 2.25.094 6.595.094s4.888-.019 6.595-.094c1.7-.075 2.869-.35 3.882-.744a8.184 8.184 0 0 0 4.682-4.682c.394-1.019.669-2.182.744-3.882.075-1.707.094-2.251.094-6.595s-.006-4.888-.081-6.595zm-2.881 13.065c-.069 1.563-.331 2.407-.55 2.969a5.31 5.31 0 0 1-3.038 3.038c-.563.219-1.413.481-2.969.55-1.688.075-2.194.094-6.464.094s-4.782-.019-6.464-.094c-1.563-.069-2.407-.331-2.969-.55a4.926 4.926 0 0 1-1.838-1.194 4.974 4.974 0 0 1-1.194-1.838c-.219-.563-.481-1.413-.55-2.969-.075-1.688-.094-2.194-.094-6.464s.019-4.782.094-6.464c.069-1.563.331-2.407.55-2.969a4.868 4.868 0 0 1 1.2-1.838A4.974 4.974 0 0 1 6.583 3.55c.563-.219 1.413-.481 2.969-.55 1.688-.075 2.194-.094 6.464-.094 4.276 0 4.782.019 6.464.094 1.563.069 2.407.331 2.969.55a4.914 4.914 0 0 1 1.838 1.194 4.974 4.974 0 0 1 1.194 1.838c.219.563.481 1.413.55 2.969.075 1.688.094 2.194.094 6.464s-.019 4.77-.094 6.458z"/>
      <path d="M16.059 7.783c-4.538 0-8.22 3.682-8.22 8.22s3.682 8.22 8.22 8.22c4.539 0 8.22-3.682 8.22-8.22s-3.682-8.22-8.22-8.22zm0 13.552a5.333 5.333 0 0 1 0-10.664 5.333 5.333 0 0 1 0 10.664zM26.524 7.458a1.919 1.919 0 1 1-3.838 0 1.919 1.919 0 0 1 3.838 0z"/>
    </symbol>
    <symbol id="twitter" viewBox="0 0 32 32">
      <path d="M32 6.078c-1.19.522-2.458.868-3.78 1.036a6.523 6.523 0 0 0 2.886-3.626 13.11 13.11 0 0 1-4.16 1.588A6.574 6.574 0 0 0 22.154 3c-3.632 0-6.556 2.948-6.556 6.562 0 .52.044 1.02.152 1.496-5.454-.266-10.28-2.88-13.522-6.862a6.605 6.605 0 0 0-.898 3.316 6.57 6.57 0 0 0 2.914 5.452 6.479 6.479 0 0 1-2.964-.808v.072c0 3.188 2.274 5.836 5.256 6.446a6.548 6.548 0 0 1-1.72.216 5.8 5.8 0 0 1-1.242-.112c.85 2.598 3.262 4.508 6.13 4.57a13.182 13.182 0 0 1-8.134 2.798c-.538 0-1.054-.024-1.57-.09A18.469 18.469 0 0 0 10.064 29c12.072 0 18.672-10 18.672-18.668 0-.29-.01-.57-.024-.848A13.087 13.087 0 0 0 32 6.078z"/>
    </symbol>
    <symbol id="facebook" viewBox="0 0 32 32">
      <path d="M21.33 5.313h2.921V.225C23.747.156 22.014 0 19.995 0c-4.212 0-7.097 2.649-7.097 7.519V12H8.25v5.688h4.648V32h5.699V17.689h4.46l.708-5.688h-5.169V8.082c.001-1.644.444-2.769 2.735-2.769z"/>
    </symbol>
    <symbol id="linkedin" viewBox="0 0 32 32">
      <path d="M31.992 32v-.001H32V20.263c0-5.741-1.236-10.164-7.948-10.164-3.227 0-5.392 1.771-6.276 3.449h-.093v-2.913h-6.364v21.364h6.627V21.42c0-2.785.528-5.479 3.977-5.479 3.399 0 3.449 3.179 3.449 5.657v10.401h6.62zM.528 10.636h6.635V32H.528V10.636zM3.843 0C1.722 0 0 1.721 0 3.843s1.721 3.879 3.843 3.879c2.121 0 3.843-1.757 3.843-3.879A3.846 3.846 0 0 0 3.843 0z"/>
    </symbol>
    <!-- Modal icons -->
    <symbol id="close" viewBox="0 0 320 512">
      <path d="M310.6 150.6c12.5-12.5 12.5-32.8 0-45.3s-32.8-12.5-45.3 0L160 210.7 54.6 105.4c-12.5-12.5-32.8-12.5-45.3 0s-12.5 32.8 0 45.3L114.7 256 9.4 361.4c-12.5 12.5-12.5 32.8 0 45.3s32.8 12.5 45.3 0L160 301.3 265.4 406.6c12.5 12.5 32.8 12.5 45.3 0s12.5-32.8 0-45.3L205.3 256 310.6 150.6z"/>
    </symbol>
    <symbol id="xmark-solid" viewBox="0 0 20 32">
      <path d="M19.413 9.412c0.781-0.781 0.781-2.050 0-2.831s-2.050-0.781-2.831 0l-6.581 6.587-6.588-6.581c-0.781-0.781-2.050-0.781-2.831 0s-0.781 2.050 0 2.831l6.588 6.581-6.581 6.587c-0.781 0.781-0.781 2.050 0 2.831s2.050 0.781 2.831 0l6.581-6.588 6.587 6.581c0.781 0.781 2.050 0.781 2.831 0s0.781-2.050 0-2.831l-6.588-6.581 6.581-6.588z"></path>
    </symbol>
    <symbol id="person" viewBox="0 0 512 512">
      <path d="M399 384.2C376.9 345.8 335.4 320 288 320H224c-47.4 0-88.9 25.8-111 64.2c35.2 39.2 86.2 63.8 143 63.8s107.8-24.7 143-63.8zM0 256a256 256 0 1 1 512 0A256 256 0 1 1 0 256zm256 16a72 72 0 1 0 0-144 72 72 0 1 0 0 144z"/>
    </symbol>
    <symbol id="phone" viewBox="0 0 384 512">
      <path d="M64 0C28.7 0 0 28.7 0 64V448c0 35.3 28.7 64 64 64H288c35.3 0 64-28.7 64-64V64c0-35.3-28.7-64-64-64H64zm80 432h64c8.8 0 16 7.2 16 16s-7.2 16-16 16H144c-8.8 0-16-7.2-16-16s7.2-16 16-16z"/>
    </symbol>
    <symbol id="email" viewBox="0 0 512 512">
      <path d="M48 64C21.5 64 0 85.5 0 112c0 15.1 7.1 29.3 19.2 38.4L236.8 313.6c11.4 8.5 27 8.5 38.4 0L492.8 150.4c12.1-9.1 19.2-23.3 19.2-38.4c0-26.5-21.5-48-48-48H48zM0 176V384c0 35.3 28.7 64 64 64H448c35.3 0 64-28.7 64-64V176L294.4 339.2c-22.8 17.1-54 17.1-76.8 0L0 176z"/>
    </symbol>
    <symbol id="check" viewBox="0 0 448 512">
      <path d="M64 32C28.7 32 0 60.7 0 96V416c0 35.3 28.7 64 64 64H384c35.3 0 64-28.7 64-64V96c0-35.3-28.7-64-64-64H64zM337 209L209 337c-9.4 9.4-24.6 9.4-33.9 0l-64-64c-9.4-9.4-9.4-24.6 0-33.9s24.6-9.4 33.9 0l47 47L303 175c9.4-9.4 24.6-9.4 33.9 0s9.4 24.6 0 33.9z"/>
    </symbol>
    <symbol id="uncheck"  viewBox="0 0 16 16" >
      <rect x="0.5" y="0.5" width="15" height="15" rx="1.5" stroke="#2E2F42" fill="transparent"/>
    </symbol>
  </defs>
</svg>
